# xmcd
#
# Track frame offsets:
#	150
#	14176
#	29270
#	42875
#	57169
#	77526
#	94320
#	111115
#	122033
#	137791
#	159773
#	173241
#	185699
#	205370
#	221808
#	234315
#	245642
#	273650
#
# Disc length: 3663 seconds
#
# Revision: 1
# Processed by: cddbd v1.5.2PL0 Copyright (c) Steve Scherf et al.
# Submitted via: audiograbber 1.83.01
#
DISCID=050e4d12
DTITLE=Chartbuster 5008-1 - 80's Country
DYEAR=1900
DGENRE=Karaoke
TTITLE0=Hank, Williams Jr. - All My Rowdy Friends Are Coming Over Tonight
TTITLE1=Willie, Nelson - My Heroes Have Always Been Cowboys
TTITLE2=Conway, Twitty - Tight Fittin Jeans
TTITLE3=Dottie West - A Lesson In Leavin'
TTITLE4=Kenny, Rodgers - Coward Of The County
TTITLE5=Charlie, Daniels - The, Devil Went Down To Georgia
TTITLE6=Barbara, Mandrell - I Was Country When Country Wasn't Cool
TTITLE7=Waylon, Jennings - Good Ole Boys (Dukes of Hazzard)
TTITLE8=David Allen, Coe - The, Ride
TTITLE9=Merle, Hagard - I Think I'll Just Stay Here and Drink
TTITLE10=Janie, Fricke - He's A Heartache (Looking For A Place To Happen)
TTITLE11=The, Oak Ridge Boys - Tryin To Love Two Women
TTITLE12=David, Frizzell - I'm Gonna Hire A Wino
TTITLE13=Mac, Davis - It's Hard To Be Humble
TTITLE14=Shelly, West - Jose Cuervo
TTITLE15=Mel, McDaniel - Louisiana Saturday Night
TTITLE16=Alabama - Tennessee River
TTITLE17=Dummy - empty
EXTD=
EXTT0=
EXTT1=
EXTT2=
EXTT3=
EXTT4=
EXTT5=
EXTT6=
EXTT7=
EXTT8=
EXTT9=
EXTT10=
EXTT11=
EXTT12=
EXTT13=
EXTT14=
EXTT15=
EXTT16=
EXTT17=
PLAYORDER=
